<?xml version="1.0" encoding="UTF-8"?>
<svg width="512px" height="336px" viewBox="0 0 512 336" version="1.1" xmlns="http://www.w3.org/2000/svg" xmlns:xlink="http://www.w3.org/1999/xlink">
    <!-- Generator: Sketch 49.2 (51160) - http://www.bohemiancoding.com/sketch -->
    <title>happy_feet</title>
    <desc>Created with Sketch.</desc>
    <defs></defs>
    <g id="Page-1" stroke="none" stroke-width="1" fill="none" fill-rule="evenodd">
        <g id="noun_1120331_cc">
            <path d="M43.49,316.43 L321.08,316.43 C334.46053,316.413471 345.303471,305.57053 345.32,292.19 L345.32,220.05 L359.2,226.88 L373.54,233.94 L387.32,240.73 L478.52,285.73 C482.84,287.86 486.68,288.24 489.04,286.73 C491.4,285.22 492.76,281.65 492.76,276.84 L492.76,59.17 C492.76,54.35 491.41,50.75 489.04,49.28 C486.67,47.81 482.84,48.19 478.51,50.28 L383,97.41 L359.2,109.12 L345.33,115.95 L345.33,43.81 C345.313471,30.4294703 334.47053,19.5865294 321.09,19.57 L43.49,19.57 C30.1094703,19.5865294 19.2665294,30.4294703 19.25,43.81 L19.25,292.19 C19.2665294,305.57053 30.1094703,316.413471 43.49,316.43 Z" id="Shape"></path>
            <path d="M321.08,335.68 C345.087441,335.652446 364.542446,316.197441 364.57,292.19 L364.57,251 L378.81,258 L470,303 C480.42,308.13 491.06,308.17 499.2,303.11 C507.34,298.05 512,288.44 512,276.83 L512,59.17 C512,47.56 507.34,37.99 499.2,32.93 C491.06,27.87 480.43,27.93 470,33.04 L374.44,80.14 L364.57,85 L364.57,43.8 C364.542446,19.7925586 345.087441,0.337553615 321.08,0.31 L43.49,0.31 C19.4786591,0.337563787 0.0220433033,19.7986534 0,43.81 L0,292.19 C0.0275536154,316.197441 19.4825586,335.652446 43.49,335.68 L321.08,335.68 Z M19.25,43.81 C19.2665294,30.4294703 30.1094703,19.5865294 43.49,19.57 L321.08,19.57 C334.46053,19.5865294 345.303471,30.4294703 345.32,43.81 L345.32,115.95 L359.2,109.12 L383,97.41 L478.55,50.31 C482.88,48.18 486.71,47.8 489.08,49.31 C491.45,50.82 492.8,54.39 492.8,59.2 L492.8,276.83 C492.8,281.65 491.45,285.25 489.08,286.72 C486.71,288.19 482.88,287.81 478.56,285.72 L387.36,240.72 L373.58,233.93 L359.24,226.87 L345.37,220.04 L345.37,292.18 C345.353471,305.56053 334.51053,316.403471 321.13,316.42 L43.49,316.42 C30.1094703,316.403471 19.2665294,305.56053 19.25,292.18 L19.25,43.81 Z" id="Shape" fill="#000000" fill-rule="nonzero"></path>
        </g>
        <g id="noun_1120331_cc-copy">
            <path d="M43.49,316.43 L321.08,316.43 C334.46053,316.413471 345.303471,305.57053 345.32,292.19 L345.32,220.05 L359.2,226.88 L373.54,233.94 L387.32,240.73 L478.52,285.73 C482.84,287.86 486.68,288.24 489.04,286.73 C491.4,285.22 492.76,281.65 492.76,276.84 L492.76,59.17 C492.76,54.35 491.41,50.75 489.04,49.28 C486.67,47.81 482.84,48.19 478.51,50.28 L383,97.41 L359.2,109.12 L345.33,115.95 L345.33,43.81 C345.313471,30.4294703 334.47053,19.5865294 321.09,19.57 L43.49,19.57 C30.1094703,19.5865294 19.2665294,30.4294703 19.25,43.81 L19.25,292.19 C19.2665294,305.57053 30.1094703,316.413471 43.49,316.43 Z" id="Shape"></path>
            <path d="M321.08,335.68 C345.087441,335.652446 364.542446,316.197441 364.57,292.19 L364.57,251 L378.81,258 L470,303 C480.42,308.13 491.06,308.17 499.2,303.11 C507.34,298.05 512,288.44 512,276.83 L512,59.17 C512,47.56 507.34,37.99 499.2,32.93 C491.06,27.87 480.43,27.93 470,33.04 L374.44,80.14 L364.57,85 L364.57,43.8 C364.542446,19.7925586 345.087441,0.337553615 321.08,0.31 L43.49,0.31 C19.4786591,0.337563787 0.0220433033,19.7986534 0,43.81 L0,292.19 C0.0275536154,316.197441 19.4825586,335.652446 43.49,335.68 C103.722564,335.68 148.896986,335.68 179.013268,335.68 C210.583653,335.68 257.93923,335.68 321.08,335.68 Z M19.25,43.81 C19.2665294,30.4294703 30.1094703,19.5865294 43.49,19.57 L321.08,19.57 C334.46053,19.5865294 345.303471,30.4294703 345.32,43.81 L345.32,115.95 L359.2,109.12 L383,97.41 L478.55,50.31 C482.88,48.18 486.71,47.8 489.08,49.31 C491.45,50.82 492.8,54.39 492.8,59.2 L492.8,276.83 C492.8,281.65 491.45,285.25 489.08,286.72 C486.71,288.19 482.88,287.81 478.56,285.72 L387.36,240.72 L373.58,233.93 L359.24,226.87 L345.37,220.04 L345.37,292.18 C345.353471,305.56053 334.51053,316.403471 321.13,316.42 L43.49,316.42 C30.1094703,316.403471 19.2665294,305.56053 19.25,292.18 L19.25,43.81 Z" id="Shape" fill="#3DA9FF" fill-rule="nonzero"></path>
        </g>
        <path d="M153.353631,73.4923658 C147.615017,73.4923658 142.97694,77.3099148 142.97694,84.2775195 L142.97694,131.013186 L163.730322,131.013186 L163.730322,84.2775195 C163.730322,77.3099148 159.092225,73.4923658 153.353631,73.4923658 Z" id="Path" fill="#3DA9FF"></path>
        <path d="M215.466949,73.4923658 C209.728356,73.4923658 205.090259,77.3099148 205.090259,84.2775195 L205.090259,131.013186 L225.84364,131.013186 L225.84364,84.2775195 C225.84364,77.3099148 221.205564,73.4923658 215.466949,73.4923658 Z" id="Path" fill="#3DA9FF"></path>
        <path d="M114.850154,158.905288 L114.850154,173.285493 C114.850154,180.004536 119.25369,186.072084 125.226845,187.665698 L125.226845,227.211262 C125.226845,261.069562 151.452202,288.327133 184.028094,288.327133 C216.603985,288.327133 242.829342,261.069562 242.829342,227.211262 L242.829342,187.665698 C248.802497,186.072084 253.206033,180.004536 253.206033,173.285493 L253.206033,158.905288 L114.850154,158.905288 Z" id="Path" fill="#3DA9FF"></path>
    </g>
</svg>